<?xml version="1.0" encoding="UTF-8"?> <svg xmlns="http://www.w3.org/2000/svg" width="92" height="96" viewBox="0 0 92 96" fill="none"><path d="M76.8429 84.6023C70.7842 88.0223 60.39 89 46.0118 89C31.6336 89 21.2395 88.0223 15.1808 84.6023C11.5443 82.5545 9.70361 79.7626 9.70361 77.761C9.70361 76.621 10.3101 75.9693 11.6606 75.9693H80.3617C81.7135 75.9693 82.3188 76.621 82.3188 77.761C82.32 79.7626 80.4793 82.5545 76.8429 84.6023ZM80.3617 31.5478H11.6606C10.3101 31.5478 9.70361 30.8499 9.70361 29.5937C9.70361 22.1469 20.9131 9 46.0118 9C70.878 9 82.32 22.1469 82.32 29.5937C82.32 30.8499 81.7135 31.5478 80.3617 31.5478Z" fill="#FF8732"></path><path d="M24.3381 62.2643C24.128 61.9384 24.1055 61.7286 24.1055 61.6362C24.1055 61.3803 24.2455 61.1942 24.5244 60.9383C25.1771 60.3327 26.7853 58.8206 27.6706 57.4483C28.3459 56.4007 28.626 55.4468 28.626 54.6564C28.626 52.6323 26.7853 51.0491 24.7807 51.0491C23.499 51.0491 22.2872 51.7708 21.4719 53.0968C20.3765 54.8649 19.071 56.9127 18.2331 57.728C18.023 57.9378 17.9068 57.984 17.7442 57.984C17.4641 57.984 17.3478 57.7979 17.3478 57.4958V55.1683C17.3478 52.8883 15.996 51.0491 13.5488 51.0491C11.079 51.0491 9.74976 52.8871 9.74976 55.1683V69.5026C9.74976 71.7826 11.0778 73.6219 13.5488 73.6219C15.996 73.6219 17.3478 71.7839 17.3478 69.5026V66.1988C17.3478 65.9191 17.4641 65.7105 17.7442 65.7105C18.1168 65.7105 18.2106 66.0826 18.3032 66.2687C18.8396 67.5485 20.4002 70.2706 21.8458 71.8763C22.825 72.9464 24.0367 73.6219 25.3185 73.6219C27.4856 73.6219 29.3038 71.7365 29.3038 69.7124C29.3038 68.4563 28.7673 67.5248 27.7419 66.4085C26.4364 64.9863 24.8983 63.1246 24.3381 62.2643Z" fill="#D62300"></path><path d="M53.3997 49.7217C57.0587 49.7217 59.3658 47.3942 59.3658 43.9979C59.3658 41.834 58.0603 40.3444 55.4505 40.3444H54.7052C53.3297 40.3444 52.258 40.9963 52.258 42.4622C52.258 43.7658 53.3997 44.3937 54.2625 44.3937C54.7052 44.3937 54.9853 44.5337 54.9853 44.8596C54.9853 45.2779 54.4964 45.5575 53.9362 45.5575C52.188 45.5575 51 44.3238 51 42.0201C51 39.4604 52.6319 38.5303 53.8899 38.5303C55.428 38.5303 55.6844 39.3218 56.756 39.3218C57.9915 39.3218 58.8306 38.2979 58.8306 37.2278C58.8306 36.4362 58.4805 35.8319 57.9453 35.4123C56.9661 34.6906 55.5918 34.1562 53.541 34.1562C49.9283 34.1562 46.4094 36.5299 46.4094 42.0214C46.4082 47.2782 49.9271 49.7217 53.3997 49.7217Z" fill="#D62300"></path><path d="M12.4297 49.582H15.716C18.816 49.582 20.703 47.5105 20.703 44.9283C20.703 42.8568 19.4675 41.9029 19.1886 41.6706C19.0723 41.577 18.956 41.4846 18.956 41.3909C18.956 41.2748 19.0261 41.2286 19.1424 41.0887C19.585 40.5768 20.0277 39.7627 20.0277 38.5752C20.0277 35.7833 18.1395 34.2937 15.2033 34.2937H12.4297C10.589 34.2937 9.70361 35.365 9.70361 36.8072V47.0685C9.70361 48.5119 10.589 49.582 12.4297 49.582ZM13.8052 38.2968C13.8052 37.9946 13.9916 37.7611 14.388 37.7611H14.6906C15.6922 37.7611 15.9961 38.4591 15.9961 39.0647C15.9961 39.6228 15.6935 40.4145 14.6906 40.4145H14.388C13.9916 40.4145 13.8052 40.1822 13.8052 39.8788V38.2968ZM13.8052 43.7421C13.8052 43.4399 13.9916 43.2064 14.388 43.2064H14.8069C15.9261 43.2064 16.2512 43.9506 16.2512 44.6261C16.2512 45.2317 15.9248 46.092 14.8069 46.092H14.388C13.9916 46.092 13.8052 45.8598 13.8052 45.5564V43.7421Z" fill="#D62300"></path><path d="M73.2776 49.6981C74.7695 49.6981 75.5848 48.5805 75.5848 47.1846V44.7185C75.5848 44.4163 75.7249 44.2765 75.9574 44.2765C76.2376 44.2765 76.3301 44.4388 76.3764 44.7185C76.5864 45.9047 77.1454 47.5104 77.7744 48.3258C78.5672 49.3734 79.3125 49.6993 80.0578 49.6993C81.2696 49.6993 82.3187 48.7453 82.3187 47.5579C82.3187 46.7663 81.9923 46.1844 81.5734 45.65C80.7806 44.6498 80.2917 43.998 79.989 43.1839C79.919 42.9979 79.9653 42.8343 80.1754 42.672C80.8982 42.1138 81.7372 40.8802 81.7372 38.9261C81.7372 35.9706 79.29 34.2949 76.3301 34.2949H73.6965C71.8558 34.2949 70.9705 35.365 70.9705 36.8084V47.187C70.9705 48.5818 71.7858 49.6981 73.2776 49.6981ZM75.3284 38.6926C75.3284 38.3904 75.5148 38.1569 75.9112 38.1569H76.2376C77.2167 38.1569 77.5193 38.8549 77.5193 39.4605C77.5193 40.0424 77.2167 40.8103 76.2376 40.8103H75.9112C75.5148 40.8103 75.3284 40.578 75.3284 40.2746V38.6926Z" fill="#D62300"></path><path d="M34.965 51.0479C32.3552 51.0479 30.9333 53.002 30.9333 55.4455V69.2217C30.9333 71.6653 32.3552 73.6194 34.965 73.6194C37.5747 73.6194 38.9967 71.6653 38.9967 69.2217V55.4455C38.9967 53.0032 37.576 51.0479 34.965 51.0479Z" fill="#D62300"></path><path d="M76.4001 60.0066H75.2584C73.2076 60.0066 71.6232 60.9606 71.6232 63.0545C71.6232 64.9624 73.3476 65.8702 74.6294 65.8702C75.2584 65.8702 75.7011 66.0562 75.7011 66.5444C75.7011 67.15 74.9557 67.5446 74.1629 67.5446C71.5294 67.5446 69.7349 65.7528 69.7349 62.4252C69.7349 58.7255 72.1821 57.3757 74.0691 57.3757C76.3763 57.3757 76.749 58.5395 78.3571 58.5395C80.2216 58.5395 81.4796 57.0274 81.4796 55.4915C81.4796 54.3515 80.9669 53.4675 80.1516 52.8619C78.7298 51.8143 76.5864 51.0464 73.5564 51.0464C68.1268 51.0464 62.8359 54.4664 62.8359 62.4252C62.8359 70.0344 68.1255 73.5942 73.3464 73.5942C78.8223 73.5942 82.2949 70.2204 82.2949 65.2871C82.2962 62.1705 80.3391 60.0066 76.4001 60.0066Z" fill="#D62300"></path><path d="M67.5918 49.5818C68.8973 49.5818 69.9227 48.8139 69.9227 47.4179C69.9227 46.0444 68.8973 45.2765 67.5918 45.2765H65.4947C65.0983 45.2765 64.9119 45.0442 64.9119 44.7408V44.2988C64.9119 43.9966 65.0983 43.7631 65.4947 43.7631H67.1028C68.222 43.7631 69.1074 43.0889 69.1074 41.9014C69.1074 40.7152 68.222 40.0397 67.1028 40.0397H65.4947C65.0983 40.0397 64.9119 39.8074 64.9119 39.504V39.1319C64.9119 38.8298 65.0983 38.5963 65.4947 38.5963H67.5918C68.8973 38.5963 69.9227 37.8284 69.9227 36.4324C69.9227 35.0589 68.8973 34.291 67.5918 34.291H63.1875C61.3468 34.291 60.4614 35.3611 60.4614 36.8045V47.0658C60.4614 48.5079 61.3468 49.5793 63.1875 49.5793H67.5918V49.5818Z" fill="#D62300"></path><path d="M27.5544 49.6979C31.3297 49.6979 33.3342 47.4403 33.3342 44.6022V36.7608C33.3342 35.3648 32.5189 34.2473 31.027 34.2473C29.5352 34.2473 28.7199 35.3648 28.7199 36.7608V44.3462C28.7199 44.9044 28.3935 45.5562 27.5544 45.5562C26.7153 45.5562 26.4352 44.9044 26.4352 44.3462V36.7608C26.4352 35.3648 25.5961 34.2473 24.1043 34.2473C22.6124 34.2473 21.7971 35.3648 21.7971 36.7608V44.6022C21.7984 47.4416 23.7792 49.6979 27.5544 49.6979Z" fill="#D62300"></path><path d="M43.9148 49.6981C45.1265 49.6981 46.1757 48.7441 46.1757 47.5567C46.1757 46.765 45.8493 46.1832 45.4304 45.6488C44.7551 44.7647 44.1486 43.9968 43.846 43.1827C43.776 42.9967 43.8222 42.8331 44.0323 42.6708C44.7551 42.1126 45.5942 40.879 45.5942 38.9249C45.5942 35.9693 43.147 34.2937 40.1871 34.2937H37.5523C35.7115 34.2937 34.8262 35.3638 34.8262 36.8072V47.1858C34.8262 48.5818 35.6415 49.6993 37.1333 49.6993C38.6252 49.6993 39.4405 48.5818 39.4405 47.1858V44.7198C39.4405 44.4176 39.5806 44.2778 39.8132 44.2778C40.0933 44.2778 40.1858 44.4401 40.2321 44.7198C40.4422 45.906 41.0011 47.5117 41.6301 48.3271C42.4229 49.3722 43.1682 49.6981 43.9148 49.6981ZM40.092 40.8091H39.7656C39.3692 40.8091 39.1829 40.5768 39.1829 40.2734V38.6926C39.1829 38.3904 39.3692 38.157 39.7656 38.157H40.092C41.0712 38.157 41.3738 38.8549 41.3738 39.4605C41.3738 40.0411 41.0712 40.8091 40.092 40.8091Z" fill="#D62300"></path><path d="M57.3139 51.0479C54.913 51.0479 53.6087 52.8396 53.6087 55.0972V60.1229C53.6087 60.5412 53.4686 60.7285 53.2123 60.7285C53.026 60.7285 52.8859 60.6124 52.7233 60.2865L49.4845 54.0034C48.2491 51.606 46.9673 51.0479 45.4992 51.0479C43.052 51.0479 41.7002 52.8859 41.7002 55.1896V69.5713C41.7002 71.8289 43.0057 73.6207 45.4054 73.6207C47.8064 73.6207 49.1107 71.8289 49.1107 69.5713V64.5456C49.1107 64.1273 49.2507 63.94 49.5071 63.94C49.6934 63.94 49.8334 64.0561 49.996 64.382L53.2348 70.6651C54.4703 73.0625 55.7983 73.6207 57.2201 73.6207C59.6674 73.6207 61.0191 71.7827 61.0191 69.4789V55.0972C61.0191 52.8396 59.7149 51.0479 57.3139 51.0479Z" fill="#D62300"></path><path d="M79.0149 87.0195C79.0149 86.394 79.5001 85.8708 80.1653 85.8708C80.8306 85.8708 81.3158 86.394 81.3158 87.0195C81.3158 87.6913 80.8306 88.1758 80.1653 88.1758C79.5001 88.177 79.0149 87.6838 79.0149 87.0195ZM81.0657 87.0195C81.0657 86.4414 80.6118 86.1056 80.1653 86.1056C79.7189 86.1056 79.265 86.4414 79.265 87.0195C79.265 87.6214 79.7189 87.941 80.1653 87.941C80.6118 87.941 81.0657 87.6214 81.0657 87.0195ZM79.7664 87.5127V86.5363C79.7664 86.4739 79.8215 86.4115 79.884 86.4115H80.2129C80.4705 86.4115 80.6505 86.5675 80.6505 86.7786C80.6505 86.9584 80.5492 87.1144 80.3142 87.1531L80.5718 87.4428C80.5955 87.4666 80.6105 87.4978 80.6105 87.5202C80.6105 87.5902 80.563 87.6376 80.493 87.6376C80.4455 87.6376 80.4142 87.6139 80.3917 87.5827L80.0478 87.1769H80.009V87.5127C80.009 87.5752 79.954 87.6301 79.884 87.6301C79.8215 87.6289 79.7664 87.5752 79.7664 87.5127ZM80.1816 86.9571C80.3229 86.9571 80.4004 86.8872 80.4004 86.7935C80.4004 86.6924 80.3304 86.6376 80.2054 86.6376H80.0103V86.9585H80.1816V86.9571Z" fill="#D62300"></path></svg> 